<svg viewBox="0 0 577.04 464.48" version="1.1" xmlns="http://www.w3.org/2000/svg" id="Layer_1">
  
  <defs>
    <style>
      .st0 {
        fill: #231f20;
      }
    </style>
  </defs>
  <path d="M541.28,190.29c-5.21-4.94-11.2-8.08-17.69-9.86-4.14-1.13-8.48-1.71-12.97-1.84-13.36-.39-26.77-.07-40.1-.92-11.33-.71-19.01-13.14-15.55-24.69,2.76-9.2,10.41-14.19,19.48-14.27,25.27-.23,50.54-.08,75.81-.08h4.09c-1.23-7.55-2.42-14.88-3.64-22.38-.64-.04-1.22-.1-1.81-.1-25.75,0-51.5-.04-77.26.04-2.34,0-4.71.57-7.02,1.07-11.67,2.55-21.13,9.61-26.94,19.18-4.2,6.91-6.51,15.14-6.4,23.91.03,2.09.07,4.17.11,6.26.03,1.58.05,3.16.06,4.74.03,3.87-.02,7.74-.24,11.6v.16c0,6.55-1.18,12.83-3.34,18.64-7.58,20.39-27.24,34.95-50.24,34.95-16.1,0-30.57-7.14-40.39-18.42-.1-.12-.2-.23-.31-.35-1.98-2.3-3.75-4.78-5.32-7.4-.2-.31-.37-.61-.54-.92-2.5-4.36-4.39-9.11-5.58-14.13,0-.01,0-.02,0-.04-.74-3.14-1.21-6.38-1.37-9.7.02-.42.03-.84.04-1.27,0-.45.01-.9.01-1.35,0-.88-.01-1.75-.05-2.62-.33-10.02-2.62-19.56-6.49-28.24-1.36-3.2-2.92-6.24-4.7-9.14-.03.04-.05.07-.07.12-3.76-6.1-8.37-11.63-13.64-16.42-.04-.04-.08-.07-.12-.11-5.92-5.37-12.68-9.8-20.07-13.1-.45-.2-.9-.41-1.36-.6-6.62-2.8-13.7-4.7-21.1-5.52,0-.04,0-.09-.02-.13C246.14,46.49,193,0,129.2,0c-21.91,0-42.56,5.48-60.66,15.15C27.79,36.91,0,79.87,0,129.2c0,71.24,57.95,129.2,129.2,129.2,14.99,0,29.39-2.57,42.79-7.29v199.64l24.62,13.73v-225.1c.05-.04.11-.07.16-.1,13.54,12.38,31.55,19.94,51.3,19.94,27.35,0,51.37-14.5,64.78-36.21,13.41,21.71,37.44,36.21,64.78,36.21.3,0,.61,0,.92,0,8.55-.1,16.75-1.61,24.4-4.33,25.99-9.19,45.52-32.12,49.87-60.01.98.86,1.59,1.37,1.67,1.43h0c7.89,4.07,16.22,4.78,24.7,4.74,10.52-.06,21.04.09,31.56-.07,4.18-.07,7.91.92,11.5,2.98,8.63,4.96,12.85,14.75,9.8,24.52-2.69,8.6-10.11,14.63-20.15,14.63-26.24-.01-52.47,0-78.71-.01-3.81,0-6.99,1.22-9.13,4.46-2.6,3.93-2.73,7.86-.1,11.93,2.34,3.62,5.68,4.68,9.71,4.68,22.44,0,45.2-1.14,67.61-.06,17.44.84,33.83-2.38,44.69-17.65,11.84-16.65,10.35-41.93-4.68-56.17ZM200.77,208.25c-4.01-7.49-6.27-16.05-6.27-25.13,0-3.44.33-6.82.96-10.08.68-3.57,1.71-7,3.06-10.28,4.52-10.98,12.59-20.14,22.78-26.04,4.11-2.39,8.57-4.24,13.28-5.46.04-.01.09-.03.12-.04.27-.07.54-.14.81-.2.12-.04.24-.07.36-.09-.25,15.58-3.86,30.36-10.12,43.64-.03.05-.05.11-.08.17-6.05,12.75-14.55,24.13-24.9,33.5ZM170.96,227.37c-3.23,1.37-6.54,2.6-9.92,3.65-1.47.46-2.95.89-4.44,1.29-.05.02-.1.04-.16.05-8.7,2.29-17.83,3.52-27.24,3.52-51.4,0-94.43-36.54-104.47-85.01-1.45-7-2.22-14.26-2.22-21.68,0-3.34.15-6.65.46-9.91.25-2.72.6-5.41,1.06-8.07h0c8.57-50.3,52.47-88.71,105.17-88.71s94.93,36.97,104.64,85.86c-32.47,6.17-57.71,33.04-61.39,66.31-.02.15-.04.29-.05.44v-.57c-.01.31-.03.62-.04.92-.25,2.52-.38,5.07-.38,7.65,0,.4.01.8.02,1.2v-.02s-.01,42.61-.01,42.61c-.34.15-.68.3-1.03.45ZM273.25,230.41c-1.15.62-2.32,1.2-3.52,1.72-.6.27-1.2.52-1.8.76-1.5.61-3.04,1.14-4.61,1.6-.31.09-.63.19-.94.27-.62.17-1.25.34-1.89.49-.3.08-.61.15-.92.21-.32.07-.65.15-.98.21-3.4.68-6.91,1.03-10.5,1.03-12.04,0-23.16-3.99-32.11-10.72-.23-.17-.46-.35-.69-.52,19.13-17.12,33.15-39.84,39.44-65.56.02-.11.05-.22.08-.33,2.23-9.23,3.46-18.85,3.6-28.72v-.32c23.8,4.66,42.01,25.12,43.2,49.96-.04.87-.05,1.74-.05,2.62s.01,1.75.05,2.62c-.94,19.35-12.18,36.04-28.34,44.66Z" class="st0"></path>
  <path d="M571.75,243.36c1.66.95,2.95,2.27,3.89,3.94.94,1.67,1.4,3.56,1.4,5.64s-.47,3.98-1.4,5.67c-.94,1.69-2.23,3.02-3.89,3.97-1.66.95-3.53,1.43-5.62,1.43s-4.01-.48-5.67-1.43c-1.66-.95-2.95-2.28-3.89-3.97-.94-1.69-1.4-3.58-1.4-5.67s.47-3.97,1.4-5.64c.94-1.67,2.23-2.99,3.89-3.94,1.66-.95,3.55-1.43,5.67-1.43s3.96.48,5.62,1.43ZM572.42,259.37c1.6-1.66,2.4-3.8,2.4-6.43s-.8-4.77-2.4-6.43c-1.6-1.65-3.7-2.48-6.29-2.48s-4.72.83-6.29,2.48c-1.57,1.66-2.35,3.8-2.35,6.43s.78,4.77,2.35,6.43c1.57,1.66,3.66,2.48,6.29,2.48s4.69-.83,6.29-2.48ZM570.32,252.87c-.45.59-1.07,1.02-1.86,1.27l3.02,4.48-3.4.05-2.59-4.32h-.92v4.32h-2.81v-11.61h5.18c1.22,0,2.21.32,2.94.97.74.65,1.11,1.53,1.11,2.65,0,.86-.23,1.59-.67,2.19ZM564.57,252.03h2.21c.4,0,.73-.11,1-.32s.41-.52.41-.92-.14-.69-.41-.89c-.27-.2-.6-.3-1-.3h-2.21v2.43Z" class="st0"></path>
</svg>